<?xml version="1.0" encoding="UTF-8"?>
<svg version="1.1" xmlns="http://www.w3.org/2000/svg" width="486" height="486">
<path d="M0 0 C1.04510742 0.22494141 2.09021484 0.44988281 3.16699219 0.68164062 C31.10820466 6.87185126 57.96138607 17.31101588 82 33 C82.99128906 33.61875 83.98257812 34.2375 85.00390625 34.875 C106.40769536 48.55518478 126.45521861 67.00985846 142 87 C142.71671875 87.91136719 143.4334375 88.82273437 144.171875 89.76171875 C168.33387371 121.16374899 183.0405962 156.34430691 191 195 C191.18369141 195.86318848 191.36738281 196.72637695 191.55664062 197.61572266 C197.39660479 226.25132386 196.16197963 259.54941836 190 288 C189.77505859 289.04510742 189.55011719 290.09021484 189.31835938 291.16699219 C183.12814874 319.10820466 172.68898412 345.96138607 157 370 C156.38125 370.99128906 155.7625 371.98257812 155.125 373.00390625 C141.44481522 394.40769536 122.99014154 414.45521861 103 430 C102.08863281 430.71671875 101.17726563 431.4334375 100.23828125 432.171875 C68.83625101 456.33387371 33.65569309 471.0405962 -5 479 C-5.86318848 479.18369141 -6.72637695 479.36738281 -7.61572266 479.55664062 C-36.25132386 485.39660479 -69.54941836 484.16197963 -98 478 C-99.04510742 477.77505859 -100.09021484 477.55011719 -101.16699219 477.31835938 C-129.10820466 471.12814874 -155.96138607 460.68898412 -180 445 C-180.99128906 444.38125 -181.98257813 443.7625 -183.00390625 443.125 C-204.40769536 429.44481522 -224.45521861 410.99014154 -240 391 C-240.71671875 390.08863281 -241.4334375 389.17726563 -242.171875 388.23828125 C-266.33387371 356.83625101 -281.0405962 321.65569309 -289 283 C-289.18369141 282.13681152 -289.36738281 281.27362305 -289.55664062 280.38427734 C-295.39660479 251.74867614 -294.16197963 218.45058164 -288 190 C-287.77505859 188.95489258 -287.55011719 187.90978516 -287.31835938 186.83300781 C-281.12814874 158.89179534 -270.68898412 132.03861393 -255 108 C-254.38125 107.00871094 -253.7625 106.01742187 -253.125 104.99609375 C-239.44481522 83.59230464 -220.99014154 63.54478139 -201 48 C-200.08863281 47.28328125 -199.17726563 46.5665625 -198.23828125 45.828125 C-166.83625101 21.66612629 -131.65569309 6.9594038 -93 -1 C-92.13681152 -1.18369141 -91.27362305 -1.36738281 -90.38427734 -1.55664062 C-61.74867614 -7.39660479 -28.45058164 -6.16197963 0 0 Z " fill="#E5EFFF" transform="translate(292,4)"/>
<path d="M0 0 C1.65202488 -0.00271512 3.30404854 -0.00627897 4.95606995 -0.01062012 C9.41252289 -0.01968297 13.8688825 -0.01622561 18.32533693 -0.00986195 C23.00427774 -0.00477188 27.68321095 -0.00950156 32.3621521 -0.01263428 C40.21491927 -0.01626447 48.06764872 -0.01149897 55.92041016 -0.00195312 C64.98352535 0.00893718 74.04655058 0.00539784 83.10966361 -0.00560594 C90.91124317 -0.01469677 98.71279575 -0.01595553 106.51437891 -0.0107286 C111.16523676 -0.00761975 115.8160524 -0.00716979 120.4669075 -0.01380157 C124.83857603 -0.01960086 129.21012908 -0.01553108 133.5817852 -0.00401306 C135.18089418 -0.00138058 136.78001296 -0.00210729 138.37911797 -0.00653839 C159.94409438 -0.06076234 159.94409438 -0.06076234 168.16552734 7.91503906 C179.06575994 19.44967673 179.06575994 19.44967673 179.38037109 28.25878906 C180.37037109 29.24878906 180.37037109 29.24878906 181.38037109 30.25878906 C181.62926006 32.51673222 181.62926006 32.51673222 181.62760925 35.38990784 C181.63180374 36.47663788 181.63599823 37.56336792 181.64031982 38.68302917 C181.63470032 39.88051285 181.62908081 41.07799652 181.62329102 42.31176758 C181.62518936 43.56866394 181.62708771 44.8255603 181.62904358 46.12054443 C181.63389912 49.57291053 181.62622785 53.02514778 181.61609054 56.47749829 C181.60732311 60.08452034 181.60906722 63.69153819 181.60945129 67.29856873 C181.60851416 73.35556197 181.59982294 79.41250517 181.58618164 85.46948242 C181.57044851 92.48136865 181.56518375 99.49320009 181.56591719 106.50510269 C181.56652664 113.24017956 181.56142929 119.9752385 181.55312538 126.71030998 C181.54958659 129.58151324 181.54776129 132.45271015 181.54723167 135.32391548 C181.54604456 139.32770524 181.53634838 143.3314295 181.52563477 147.33520508 C181.52608795 148.53471298 181.52654114 149.73422089 181.52700806 150.97007751 C181.52274307 152.05398773 181.51847809 153.13789795 181.51408386 154.25465393 C181.51240802 155.20242486 181.51073217 156.15019579 181.50900555 157.12668705 C181.38037109 159.25878906 181.38037109 159.25878906 180.38037109 160.25878906 C180.14962027 161.6062599 179.96884047 162.96256471 179.81787109 164.32128906 C179.67349609 165.62066406 179.52912109 166.92003906 179.38037109 168.25878906 C178.39037109 168.25878906 177.40037109 168.25878906 176.38037109 168.25878906 C176.27724609 168.83628906 176.17412109 169.41378906 176.06787109 170.00878906 C175.27140645 172.61540064 174.18971833 174.23232016 172.38037109 176.25878906 C171.72037109 176.25878906 171.06037109 176.25878906 170.38037109 176.25878906 C170.38037109 176.91878906 170.38037109 177.57878906 170.38037109 178.25878906 C169.06037109 178.58878906 167.74037109 178.91878906 166.38037109 179.25878906 C166.38037109 179.91878906 166.38037109 180.57878906 166.38037109 181.25878906 C165.67912109 181.52691406 164.97787109 181.79503906 164.25537109 182.07128906 C161.33182291 183.21942761 161.33182291 183.21942761 158.50537109 184.82128906 C151.16888903 188.19607081 142.96981261 187.37429127 135.06054688 187.32128906 C133.71453042 187.31612911 132.36851167 187.31154146 131.02249146 187.30747986 C128.13441997 187.29845105 125.24636898 187.28715789 122.3583107 187.27462769 C117.78498849 187.25659861 113.21174943 187.25471236 108.63839722 187.25708008 C107.86469257 187.25744924 107.09098791 187.25781839 106.29383767 187.25819874 C103.10564228 187.2599623 99.91744723 187.26217217 96.7292521 187.26434517 C87.69753163 187.2695986 78.66635145 187.25984729 69.63476562 187.20751953 C62.44596331 187.16598084 55.25790443 187.15633924 48.06902301 187.18362999 C44.27045121 187.19684044 40.47342206 187.19414904 36.67502213 187.15258789 C33.10041976 187.11380249 29.52830081 187.11746941 25.95368576 187.15271187 C24.02903294 187.16083709 22.10434999 187.12458021 20.18005371 187.08665466 C13.53771854 187.19707947 10.00367735 187.90150343 5.22702026 192.69848633 C3.9442746 194.21814064 2.66198386 195.73817919 1.38037109 197.25878906 C0.34912109 197.93941406 -0.68212891 198.62003906 -1.74462891 199.32128906 C-5.08746596 201.57407055 -7.2580695 204.18194248 -9.83447266 207.25097656 C-11.98423836 209.66887497 -14.35091589 211.63063079 -16.85009766 213.67285156 C-19.5677523 216.10854204 -21.83151471 218.89985776 -24.13916016 221.71972656 C-24.62771484 222.22761719 -25.11626953 222.73550781 -25.61962891 223.25878906 C-26.27962891 223.25878906 -26.93962891 223.25878906 -27.61962891 223.25878906 C-27.84650391 223.81566406 -28.07337891 224.37253906 -28.30712891 224.94628906 C-30.30048056 228.45838483 -32.9808264 231.43938781 -36.61962891 233.25878906 C-41.6007215 233.63472058 -44.67636755 233.43530516 -48.61962891 230.25878906 C-51.79780855 226.09363339 -52.042811 222.4318203 -51.98712158 217.36654663 C-51.99039042 216.57782657 -51.99365926 215.78910651 -51.99702716 214.97648585 C-52.00430342 212.33650383 -51.99015477 209.69707695 -51.97607422 207.05712891 C-51.97686519 205.16293239 -51.97896277 203.26873603 -51.98226929 201.37454224 C-51.98740557 196.22955838 -51.97386044 191.0847744 -51.95674229 185.93982267 C-51.94169867 180.55043242 -51.94288001 175.16104469 -51.94207764 169.77163696 C-51.93838384 160.71442256 -51.92341576 151.65728387 -51.90087891 142.60009766 C-51.87206129 130.99557219 -51.86166005 119.39110789 -51.85719681 107.78655052 C-51.85320575 97.79258498 -51.84070162 87.79863259 -51.82684994 77.80467653 C-51.82276334 74.6021188 -51.81983129 71.39956152 -51.81705475 68.19700241 C-51.81213362 63.14911239 -51.80188333 58.10125867 -51.78761673 53.05338669 C-51.78312246 51.20679045 -51.78026193 49.36018936 -51.77920914 47.51358795 C-51.76117607 21.66377019 -51.76117607 21.66377019 -48.18212891 17.25878906 C-47.33650391 16.59878906 -46.49087891 15.93878906 -45.61962891 15.25878906 C-44.95962891 14.26878906 -44.29962891 13.27878906 -43.61962891 12.25878906 C-42.95962891 12.25878906 -42.29962891 12.25878906 -41.61962891 12.25878906 C-41.43400391 11.66066406 -41.24837891 11.06253906 -41.05712891 10.44628906 C-38.93449141 7.21618852 -36.16342589 6.64026924 -32.61962891 5.25878906 C-31.87712891 4.74316406 -31.13462891 4.22753906 -30.36962891 3.69628906 C-21.29990264 -1.04470421 -9.97330094 -0.02771271 0 0 Z " fill="#E5EFFF" transform="translate(185.61962890625,136.7412109375)"/>
<path d="M0 0 C1.65202488 -0.00271512 3.30404854 -0.00627897 4.95606995 -0.01062012 C9.41252289 -0.01968297 13.8688825 -0.01622561 18.32533693 -0.00986195 C23.00427774 -0.00477188 27.68321095 -0.00950156 32.3621521 -0.01263428 C40.21491927 -0.01626447 48.06764872 -0.01149897 55.92041016 -0.00195312 C64.98352535 0.00893718 74.04655058 0.00539784 83.10966361 -0.00560594 C90.91124317 -0.01469677 98.71279575 -0.01595553 106.51437891 -0.0107286 C111.16523676 -0.00761975 115.8160524 -0.00716979 120.4669075 -0.01380157 C124.83857603 -0.01960086 129.21012908 -0.01553108 133.5817852 -0.00401306 C135.18089418 -0.00138058 136.78001296 -0.00210729 138.37911797 -0.00653839 C159.94409438 -0.06076234 159.94409438 -0.06076234 168.16552734 7.91503906 C179.06575994 19.44967673 179.06575994 19.44967673 179.38037109 28.25878906 C180.37037109 29.24878906 180.37037109 29.24878906 181.38037109 30.25878906 C181.62926006 32.51673222 181.62926006 32.51673222 181.62760925 35.38990784 C181.63180374 36.47663788 181.63599823 37.56336792 181.64031982 38.68302917 C181.63470032 39.88051285 181.62908081 41.07799652 181.62329102 42.31176758 C181.62518936 43.56866394 181.62708771 44.8255603 181.62904358 46.12054443 C181.63389912 49.57291053 181.62622785 53.02514778 181.61609054 56.47749829 C181.60732311 60.08452034 181.60906722 63.69153819 181.60945129 67.29856873 C181.60851416 73.35556197 181.59982294 79.41250517 181.58618164 85.46948242 C181.57044851 92.48136865 181.56518375 99.49320009 181.56591719 106.50510269 C181.56652664 113.24017956 181.56142929 119.9752385 181.55312538 126.71030998 C181.54958659 129.58151324 181.54776129 132.45271015 181.54723167 135.32391548 C181.54604456 139.32770524 181.53634838 143.3314295 181.52563477 147.33520508 C181.52608795 148.53471298 181.52654114 149.73422089 181.52700806 150.97007751 C181.52274307 152.05398773 181.51847809 153.13789795 181.51408386 154.25465393 C181.51240802 155.20242486 181.51073217 156.15019579 181.50900555 157.12668705 C181.38037109 159.25878906 181.38037109 159.25878906 180.38037109 160.25878906 C180.14962027 161.6062599 179.96884047 162.96256471 179.81787109 164.32128906 C179.67349609 165.62066406 179.52912109 166.92003906 179.38037109 168.25878906 C178.39037109 168.25878906 177.40037109 168.25878906 176.38037109 168.25878906 C176.27724609 168.83628906 176.17412109 169.41378906 176.06787109 170.00878906 C175.27140645 172.61540064 174.18971833 174.23232016 172.38037109 176.25878906 C171.72037109 176.25878906 171.06037109 176.25878906 170.38037109 176.25878906 C170.38037109 176.91878906 170.38037109 177.57878906 170.38037109 178.25878906 C169.06037109 178.58878906 167.74037109 178.91878906 166.38037109 179.25878906 C166.38037109 179.91878906 166.38037109 180.57878906 166.38037109 181.25878906 C165.67912109 181.52691406 164.97787109 181.79503906 164.25537109 182.07128906 C161.33182291 183.21942761 161.33182291 183.21942761 158.50537109 184.82128906 C151.16888903 188.19607081 142.96981261 187.37429127 135.06054688 187.32128906 C133.71453042 187.31612911 132.36851167 187.31154146 131.02249146 187.30747986 C128.13441997 187.29845105 125.24636898 187.28715789 122.3583107 187.27462769 C117.78498849 187.25659861 113.21174943 187.25471236 108.63839722 187.25708008 C107.86469257 187.25744924 107.09098791 187.25781839 106.29383767 187.25819874 C103.10564228 187.2599623 99.91744723 187.26217217 96.7292521 187.26434517 C87.69753163 187.2695986 78.66635145 187.25984729 69.63476562 187.20751953 C62.44596331 187.16598084 55.25790443 187.15633924 48.06902301 187.18362999 C44.27045121 187.19684044 40.47342206 187.19414904 36.67502213 187.15258789 C33.10041976 187.11380249 29.52830081 187.11746941 25.95368576 187.15271187 C24.02903294 187.16083709 22.10434999 187.12458021 20.18005371 187.08665466 C13.53771854 187.19707947 10.00367735 187.90150343 5.22702026 192.69848633 C3.9442746 194.21814064 2.66198386 195.73817919 1.38037109 197.25878906 C0.34912109 197.93941406 -0.68212891 198.62003906 -1.74462891 199.32128906 C-5.08746596 201.57407055 -7.2580695 204.18194248 -9.83447266 207.25097656 C-11.98423836 209.66887497 -14.35091589 211.63063079 -16.85009766 213.67285156 C-19.5677523 216.10854204 -21.83151471 218.89985776 -24.13916016 221.71972656 C-24.62771484 222.22761719 -25.11626953 222.73550781 -25.61962891 223.25878906 C-26.27962891 223.25878906 -26.93962891 223.25878906 -27.61962891 223.25878906 C-27.84650391 223.81566406 -28.07337891 224.37253906 -28.30712891 224.94628906 C-30.30048056 228.45838483 -32.9808264 231.43938781 -36.61962891 233.25878906 C-41.6007215 233.63472058 -44.67636755 233.43530516 -48.61962891 230.25878906 C-51.79780855 226.09363339 -52.042811 222.4318203 -51.98712158 217.36654663 C-51.99039042 216.57782657 -51.99365926 215.78910651 -51.99702716 214.97648585 C-52.00430342 212.33650383 -51.99015477 209.69707695 -51.97607422 207.05712891 C-51.97686519 205.16293239 -51.97896277 203.26873603 -51.98226929 201.37454224 C-51.98740557 196.22955838 -51.97386044 191.0847744 -51.95674229 185.93982267 C-51.94169867 180.55043242 -51.94288001 175.16104469 -51.94207764 169.77163696 C-51.93838384 160.71442256 -51.92341576 151.65728387 -51.90087891 142.60009766 C-51.87206129 130.99557219 -51.86166005 119.39110789 -51.85719681 107.78655052 C-51.85320575 97.79258498 -51.84070162 87.79863259 -51.82684994 77.80467653 C-51.82276334 74.6021188 -51.81983129 71.39956152 -51.81705475 68.19700241 C-51.81213362 63.14911239 -51.80188333 58.10125867 -51.78761673 53.05338669 C-51.78312246 51.20679045 -51.78026193 49.36018936 -51.77920914 47.51358795 C-51.76117607 21.66377019 -51.76117607 21.66377019 -48.18212891 17.25878906 C-47.33650391 16.59878906 -46.49087891 15.93878906 -45.61962891 15.25878906 C-44.95962891 14.26878906 -44.29962891 13.27878906 -43.61962891 12.25878906 C-42.95962891 12.25878906 -42.29962891 12.25878906 -41.61962891 12.25878906 C-41.43400391 11.66066406 -41.24837891 11.06253906 -41.05712891 10.44628906 C-38.93449141 7.21618852 -36.16342589 6.64026924 -32.61962891 5.25878906 C-31.87712891 4.74316406 -31.13462891 4.22753906 -30.36962891 3.69628906 C-21.29990264 -1.04470421 -9.97330094 -0.02771271 0 0 Z M-25.90206528 26.46657085 C-28.00837405 29.89076639 -28.11320815 31.93040373 -28.10064697 35.9342804 C-28.10406467 36.5919209 -28.10748237 37.2495614 -28.11100364 37.9271304 C-28.11757429 40.12317396 -28.09562232 42.31798575 -28.07373047 44.51391602 C-28.0726018 46.09098787 -28.07323623 47.66806182 -28.07550049 49.24513245 C-28.07664783 53.52174394 -28.05313546 57.79790638 -28.02520466 62.07441354 C-28.00019428 66.54536934 -27.99784929 71.0163355 -27.99310303 75.48735046 C-27.98067218 83.95169938 -27.9478491 92.41584157 -27.90770507 100.88009948 C-27.86299076 110.51724591 -27.84100118 120.15440223 -27.82092333 129.79162657 C-27.77911656 149.61412944 -27.70876237 169.43644623 -27.61962891 189.25878906 C-26.62962891 189.25878906 -25.63962891 189.25878906 -24.61962891 189.25878906 C-22.34227881 186.44368913 -22.34227881 186.44368913 -22.61962891 183.25878906 C-21.95962891 183.25878906 -21.29962891 183.25878906 -20.61962891 183.25878906 C-18.95296224 181.92545573 -18.95296224 181.92545573 -17.61962891 180.25878906 C-17.61962891 179.59878906 -17.61962891 178.93878906 -17.61962891 178.25878906 C-16.62962891 177.92878906 -15.63962891 177.59878906 -14.61962891 177.25878906 C-14.61962891 176.59878906 -14.61962891 175.93878906 -14.61962891 175.25878906 C-13.90419922 175.33742188 -13.18876953 175.41605469 -12.45166016 175.49707031 C-8.72757538 175.18373352 -7.17125021 173.80123324 -4.30712891 171.44628906 C-2.98261719 170.38474609 -2.98261719 170.38474609 -1.63134766 169.30175781 C0.73118918 167.38038507 0.73118918 167.38038507 0.38037109 164.25878906 C1.52531682 164.25382384 1.52531682 164.25382384 2.69339275 164.24875832 C21.26328535 164.16754958 39.83309483 164.07546408 58.40287304 163.97126198 C67.38306664 163.92113318 76.3632511 163.87469027 85.34350586 163.83691406 C93.17039304 163.80398026 100.99720934 163.76414132 108.8240183 163.71599901 C112.96851853 163.69074784 117.11297182 163.66896246 121.25752831 163.6554451 C125.15877469 163.64261221 129.05985999 163.62054456 132.96101761 163.59140587 C134.39246313 163.5823397 135.82393459 163.57664209 137.25540733 163.57457542 C139.21113571 163.57124628 141.16682778 163.55458088 143.1224823 163.53726196 C144.21665057 163.5317312 145.31081884 163.52620045 146.43814373 163.52050209 C149.44889936 163.25269343 151.65364129 162.52925955 154.38037109 161.25878906 C154.38037109 160.59878906 154.38037109 159.93878906 154.38037109 159.25878906 C155.04037109 159.25878906 155.70037109 159.25878906 156.38037109 159.25878906 C158.90383206 153.43728531 158.6552045 147.83274864 158.62329102 141.60961914 C158.62613853 139.85989052 158.62613853 139.85989052 158.62904358 138.07481384 C158.63274308 134.22591392 158.62206008 130.37720341 158.61083984 126.52832031 C158.60964764 123.85365011 158.60914416 121.17898783 158.60945129 118.50431824 C158.60851625 112.90332693 158.59985195 107.30238996 158.58618164 101.70141602 C158.57043481 95.22571219 158.56518442 88.75006776 158.56591719 82.27434617 C158.56652735 76.04009923 158.56142447 69.80587161 158.55312538 63.57163048 C158.54993746 60.91978764 158.54797102 58.26794305 158.54723167 55.6160984 C158.54507083 51.91729353 158.53633274 48.21856413 158.52563477 44.51977539 C158.52608795 43.41789886 158.52654114 42.31602234 158.52700806 41.18075562 C158.52061058 39.67302834 158.52061058 39.67302834 158.51408386 38.13484192 C158.51240802 37.26047894 158.51073217 36.38611597 158.50900555 35.48525715 C158.46751248 33.08524279 158.46751248 33.08524279 157.38037109 30.25878906 C156.72037109 30.25878906 156.06037109 30.25878906 155.38037109 30.25878906 C155.34943359 29.11410156 155.34943359 29.11410156 155.31787109 27.94628906 C154.6065287 24.92610437 154.6065287 24.92610437 151.26616096 23.61420918 C147.55438768 22.15255437 144.27562607 21.88401254 140.27023315 21.88456726 C139.2497489 21.87860565 139.2497489 21.87860565 138.2086488 21.87252361 C135.9478005 21.86296247 133.68758772 21.87468035 131.42675781 21.88647461 C129.79838834 21.88404464 128.17002037 21.88032333 126.54165649 21.87541199 C122.13270485 21.86602896 117.7239762 21.87540581 113.31504202 21.88874412 C108.69693575 21.90008192 104.07884007 21.8959494 99.46072388 21.89399719 C91.70847948 21.89311513 83.95632269 21.9041777 76.20410156 21.92260742 C67.24323159 21.94378861 58.28248978 21.94728122 49.32159984 21.94104546 C40.69584962 21.93535046 32.0701445 21.94099812 23.44440079 21.95221901 C19.77545462 21.95686166 16.10653605 21.95774031 12.43758774 21.95563316 C8.1185036 21.95374916 3.79954986 21.96186279 -0.51950455 21.97769356 C-2.10416118 21.98193457 -3.68883105 21.98278819 -5.27349091 21.98000336 C-7.43695629 21.97677821 -9.60003284 21.98587137 -11.76345825 21.99809265 C-13.57911883 22.00117196 -13.57911883 22.00117196 -15.43145943 22.00431347 C-20.05729702 22.37354188 -22.54826147 23.22246422 -25.90206528 26.46657085 Z " fill="#036BFF" transform="translate(185.61962890625,136.7412109375)"/>
<path d="M0 0 C1.01452265 -0.00445668 1.01452265 -0.00445668 2.0495407 -0.0090034 C4.31483393 -0.01767178 6.5800742 -0.01919707 8.84538269 -0.02069092 C10.4700634 -0.02532039 12.09474302 -0.03034523 13.71942139 -0.03573608 C18.13273651 -0.04884918 22.54603643 -0.05530285 26.95936799 -0.05974674 C29.71732618 -0.06267908 32.47528022 -0.06678418 35.23323631 -0.07125092 C43.86431191 -0.08492265 52.49537803 -0.09459103 61.12646371 -0.09845281 C71.08607263 -0.10293365 81.04554432 -0.1204841 91.00511152 -0.1494534 C98.70630226 -0.17107546 106.40745441 -0.18115736 114.10867518 -0.18249393 C118.70707424 -0.18354153 123.30534424 -0.18943989 127.90371132 -0.20731354 C132.23016412 -0.2238034 136.55639096 -0.22594531 140.882864 -0.21717453 C142.46830221 -0.21640466 144.05375262 -0.2207403 145.63916016 -0.23063278 C147.80877989 -0.2433737 149.97760186 -0.23746463 152.1472168 -0.22705078 C153.35971005 -0.22851734 154.57220331 -0.2299839 155.82143879 -0.2314949 C159.95689079 0.21529143 162.59165543 1.20031513 166.26408386 3.14044189 C167.20158386 5.82794189 167.20158386 5.82794189 167.26408386 8.14044189 C167.92408386 8.14044189 168.58408386 8.14044189 169.26408386 8.14044189 C170.24198793 11.07415409 170.39194009 12.96087302 170.39779663 16.01649475 C170.40419411 17.52422203 170.40419411 17.52422203 170.41072083 19.06240845 C170.41026764 20.16428497 170.40981445 21.2661615 170.40934753 22.40142822 C170.41270615 23.56265701 170.41606476 24.7238858 170.41952515 25.92030334 C170.42904818 29.7710374 170.43097901 33.62172803 170.43205261 37.47247314 C170.43445298 39.46919553 170.43685497 41.46591793 170.43951303 43.46263999 C170.44765697 49.7439971 170.45009737 56.02533988 170.4493866 62.30670166 C170.44878626 68.78060005 170.45932946 75.254415 170.47513026 81.72829229 C170.48822017 87.29018794 170.49356986 92.85205638 170.49293119 98.41396731 C170.49267656 101.73409457 170.49643046 105.05413113 170.50610924 108.3742466 C170.51589964 112.07999221 170.51303454 115.78552294 170.50700378 119.49127197 C170.51262329 120.58707581 170.5182428 121.68287964 170.52403259 122.81188965 C170.50263695 127.9822112 170.35824293 132.30931708 168.26408386 137.14044189 C167.60408386 137.14044189 166.94408386 137.14044189 166.26408386 137.14044189 C165.93408386 138.13044189 165.60408386 139.12044189 165.26408386 140.14044189 C162.00594107 141.45544419 158.59882887 141.27820013 155.12644958 141.29866028 C153.23763817 141.31334351 153.23763817 141.31334351 151.31066895 141.32832336 C149.91786232 141.33422716 148.52505529 141.34003763 147.13224792 141.34576416 C145.6636935 141.35534569 144.19514182 141.36535594 142.72659302 141.37576294 C138.74143734 141.40278828 134.75626985 141.42381067 130.77107334 141.44376493 C126.60569674 141.4656391 122.44035645 141.49302079 118.27500916 141.51982117 C110.38802632 141.56972869 102.50102331 141.61467472 94.61400104 141.65784353 C85.63461139 141.70723248 76.65525819 141.76214447 67.6759038 141.81752312 C49.20533099 141.93131338 30.73472379 142.03815887 12.26408386 142.14044189 C12.14170349 142.76080322 12.01932312 143.38116455 11.89323425 144.02032471 C10.99130881 147.05964197 9.22435173 148.04278092 6.70158386 149.89044189 C5.8752948 150.50403564 5.04900574 151.11762939 4.19767761 151.74981689 C3.55959167 152.20872314 2.92150574 152.66762939 2.26408386 153.14044189 C2.26408386 152.15044189 2.26408386 151.16044189 2.26408386 150.14044189 C3.04783386 149.52169189 3.83158386 148.90294189 4.63908386 148.26544189 C7.44492092 145.99404999 8.22742718 144.53313648 9.26408386 141.14044189 C10.91408386 141.14044189 12.56408386 141.14044189 14.26408386 141.14044189 C14.26408386 140.48044189 14.26408386 139.82044189 14.26408386 139.14044189 C17.47268046 138.0709097 19.75662595 138.0172721 23.12960815 138.02018738 C24.35378448 138.01881271 25.57796082 138.01743805 26.8392334 138.01602173 C28.19789148 138.01956085 29.55654931 138.02319566 30.91520691 138.0269165 C32.34420266 138.02719854 33.77319855 138.02704032 35.20219421 138.026474 C39.08413682 138.02618667 42.96604863 138.03207306 46.84798408 138.03904796 C50.90390349 138.04529215 54.95982359 138.04588614 59.01574707 138.04707336 C66.69737729 138.05018353 74.37899331 138.05839269 82.06061727 138.06842285 C90.80537945 138.07959374 99.5501423 138.08509691 108.29490983 138.09011829 C126.28464257 138.10057555 144.27436207 138.11816893 162.26408386 138.14044189 C162.26408386 137.48044189 162.26408386 136.82044189 162.26408386 136.14044189 C163.25408386 135.81044189 164.24408386 135.48044189 165.26408386 135.14044189 C165.2874566 118.9460925 165.30508454 102.75174859 165.31589603 86.5573864 C165.32104969 79.0378653 165.32807467 71.5183547 165.33952332 63.99884033 C165.34949857 57.44392424 165.35594406 50.88901574 165.35817236 44.33409226 C165.35947463 40.86415614 165.36252993 37.39424174 165.36981392 33.92431259 C165.37788422 30.04827216 165.37807316 26.17225288 165.37760925 22.29620361 C165.38120453 21.14893295 165.3847998 20.00166229 165.38850403 18.81962585 C165.38201818 13.81832496 165.34475397 9.05211646 164.26408386 4.14044189 C160.78915523 2.98213235 158.09269346 3.01455954 154.42495728 3.01345825 C153.37579788 3.01111827 153.37579788 3.01111827 152.30544335 3.00873101 C149.95626773 3.00473491 147.60715647 3.00790528 145.25798035 3.01104736 C143.57607485 3.00969272 141.89416965 3.00791243 140.21226501 3.0057373 C135.64013277 3.00117084 131.06802303 3.00294922 126.49589038 3.00611639 C121.7175355 3.00864362 116.93918259 3.00630148 112.16082764 3.00473022 C104.13673048 3.00290977 96.11264252 3.00531178 88.08854675 3.0100708 C78.80167576 3.01551503 69.5148267 3.01374909 60.22795624 3.0082444 C52.2635973 3.00371195 44.29924499 3.00306331 36.33488518 3.00568306 C31.57403679 3.00724487 26.81319873 3.00744218 22.052351 3.00414658 C17.57824548 3.0012659 13.10416836 3.0032472 8.63006592 3.00904083 C6.98448293 3.01036729 5.33889756 3.00997624 3.69331551 3.00777817 C1.45425325 3.00506225 -0.78471687 3.00845322 -3.02377319 3.01345825 C-4.27904595 3.01383528 -5.53431871 3.0142123 -6.82763004 3.01460075 C-9.67429838 2.93957887 -9.67429838 2.93957887 -11.73591614 4.14044189 C-11.40591614 3.15044189 -11.07591614 2.16044189 -10.73591614 1.14044189 C-7.32393294 -0.27032994 -3.63953479 0.00893737 0 0 Z " fill="#8ABAFF" transform="translate(173.7359161376953,158.85955810546875)"/>
<path d="M0 0 C22.79989341 -0.02332654 45.59978486 -0.04097797 68.39968777 -0.05181217 C78.98529394 -0.05697565 89.57089272 -0.06401933 100.15649414 -0.07543945 C109.37937759 -0.08538471 118.60225569 -0.09185305 127.82514435 -0.09408849 C132.71176412 -0.09539587 137.59836857 -0.09848342 142.48498344 -0.10573006 C147.07887461 -0.11248778 151.67274405 -0.11461747 156.26663971 -0.11310768 C157.95779348 -0.11338412 159.64894794 -0.11539071 161.34009743 -0.11920547 C163.63878176 -0.12413887 165.9373827 -0.12299962 168.23606873 -0.12025452 C170.1704513 -0.12163721 170.1704513 -0.12163721 172.14391232 -0.12304783 C175 0 175 0 176 1 C177.51469448 1.23192865 179.03754562 1.41215238 180.5625 1.5625 C181.38878906 1.64628906 182.21507812 1.73007813 183.06640625 1.81640625 C183.70449219 1.87699219 184.34257812 1.93757812 185 2 C184.67 2.99 184.34 3.98 184 5 C182.27866348 4.51300629 182.27866348 4.51300629 180.52255249 4.01617432 C173.31421048 2.42893478 165.97897249 2.72087239 158.63916016 2.74121094 C156.99067531 2.73849717 155.34219168 2.73493408 153.69371033 2.73059082 C149.23700476 2.72150899 144.78039227 2.72499405 140.32368517 2.73134899 C135.64566845 2.73643252 130.96765939 2.73171086 126.28964233 2.72857666 C118.4333148 2.72494314 110.57702493 2.72971924 102.72070312 2.73925781 C93.65880549 2.75013359 84.59699793 2.74662067 75.53510249 2.735605 C67.73523048 2.72650555 59.93538546 2.72526005 52.13550985 2.73048234 C47.48567631 2.73358843 42.83588499 2.73404916 38.18605423 2.72740936 C33.811123 2.72159804 29.43630691 2.72570155 25.06138802 2.73719788 C23.46312081 2.73982465 21.86484378 2.73911362 20.26658058 2.73467255 C3.71652016 2.41335704 3.71652016 2.41335704 -11 9 C-11.969375 9.2475 -12.93875 9.495 -13.9375 9.75 C-19.46844973 12.0075305 -22.75703001 17.13554501 -26 22 C-26.66 22 -27.32 22 -28 22 C-28.07004054 48.64230741 -28.12296389 75.28460104 -28.15543652 101.92698193 C-28.17091399 114.29713707 -28.19202038 126.66723506 -28.22631836 139.03735352 C-28.2561937 149.8175033 -28.27556859 160.59761169 -28.28226548 171.37780172 C-28.28618089 177.0873151 -28.29540103 182.79671006 -28.31719017 188.50618553 C-28.33752578 193.87822311 -28.34383969 199.25009327 -28.33932304 204.62216568 C-28.34014955 206.59545742 -28.34613253 208.56875467 -28.35761642 210.54201317 C-28.3725147 213.23359368 -28.36896333 215.92453984 -28.36076355 218.61613464 C-28.36950207 219.39921484 -28.3782406 220.18229503 -28.38724393 220.98910493 C-28.34996419 225.50807119 -27.77865635 228.39621459 -25 232 C-21.57823311 234.56632517 -18.15359579 234.36435051 -14 234 C-9.37067757 232.0621441 -7.65038701 229.14122971 -5 225 C-0.63829787 220.21276596 -0.63829787 220.21276596 3 219 C3.33 218.01 3.66 217.02 4 216 C5.48828125 214.5703125 5.48828125 214.5703125 7.3125 213.125 C10.31055119 210.66758099 12.58660876 208.03908527 15 205 C15.66 205 16.32 205 17 205 C17.33 204.01 17.66 203.02 18 202 C19.85546875 200.38671875 19.85546875 200.38671875 22.1875 198.6875 C25.1019213 196.55753963 27.12914484 194.82952476 29.33207703 191.92158508 C33.20002964 188.06520962 37.15371047 188.27021727 42.40420532 188.2011261 C43.65889618 188.21491806 44.91358704 188.22871002 46.20629883 188.24291992 C47.55218478 188.23638074 48.89806007 188.22719635 50.24391174 188.21557617 C53.88898468 188.1914411 57.53312445 188.20386473 61.17819428 188.22263885 C65.00174588 188.23577627 68.82509667 188.21419779 72.64860535 188.19612122 C79.89451234 188.16693932 87.14009118 188.16731152 94.38603562 188.17904502 C105.00091606 188.19490239 115.61569362 188.16608849 126.23053265 188.13767719 C127.80177493 188.1335404 129.37301726 188.12942133 130.94425964 188.12532043 C131.71197762 188.12326751 132.47969559 188.12121458 133.27067775 188.11909944 C137.81427193 188.10793443 142.35777529 188.10508579 146.90138018 188.10988748 C149.73705313 188.11244138 152.57271865 188.11133743 155.40839195 188.10974884 C157.33533473 188.11009482 159.2622745 188.11556609 161.18920898 188.12123108 C167.54737269 188.11512943 173.6973178 187.8514176 180 187 C180 187.66 180 188.32 180 189 C177.3309745 190.33451275 175.30947364 190.12164268 172.3196106 190.11784363 C170.50670029 190.11952042 170.50670029 190.11952042 168.65716553 190.12123108 C167.31066883 190.11756606 165.96417225 190.11385667 164.61767578 190.11010742 C163.20516967 190.10986537 161.7926634 190.11014225 160.38015747 190.11090088 C157.33429551 190.11200844 154.2884486 190.11057094 151.24258804 190.10753441 C146.4273895 190.10390852 141.61226986 190.11302693 136.79708862 190.12532043 C135.98501422 190.12734236 135.17293982 190.12936429 134.3362571 190.13144749 C132.67550778 190.13561623 131.01475854 190.13981899 129.35400939 190.14405501 C118.14107062 190.17222372 106.9283024 190.19231798 95.71533203 190.17504883 C88.15533538 190.16350072 80.59569206 190.17305074 73.03575885 190.20710641 C69.03362856 190.22428415 65.03213592 190.23051748 61.03000259 190.210989 C57.26548833 190.19278671 53.50207337 190.20233113 49.73765182 190.23324585 C48.35576466 190.2396223 46.97378646 190.23573262 45.59196472 190.22084999 C38.55917343 189.78323065 38.55917343 189.78323065 32.38000107 192.35100746 C31.16965141 194.15221516 31.16965141 194.15221516 30 197 C29.01 197.33 28.02 197.66 27 198 C26.67 198.99 26.34 199.98 26 201 C25.34 201 24.68 201 24 201 C23.67 201.99 23.34 202.98 23 204 C21.5459375 204.4021875 21.5459375 204.4021875 20.0625 204.8125 C18.5465625 205.4003125 18.5465625 205.4003125 17 206 C16.29618843 207.98723268 15.6288189 209.98777953 15 212 C14.26265625 212.27585937 13.5253125 212.55171875 12.765625 212.8359375 C8.60343904 214.58781803 6.36225596 217.79907251 3.48632812 221.1875 C2.35869034 222.4890178 1.18265772 223.74826669 0 225 C-0.66 225 -1.32 225 -2 225 C-2 226.32 -2 227.64 -2 229 C-2.5775 229.061875 -3.155 229.12375 -3.75 229.1875 C-6.87580285 230.31626214 -7.98152818 232.41383298 -10 235 C-13.27404883 237.29183418 -16.0646553 237.39353447 -20 237 C-23.56008758 235.53408158 -26.59632487 234.07136266 -29 231 C-29 230.34 -29 229.68 -29 229 C-29.66 229 -30.32 229 -31 229 C-31.04678596 203.66930212 -31.08202114 178.33861074 -31.10362434 153.0078783 C-31.1139231 141.24555324 -31.12795661 129.48325507 -31.15087891 117.72094727 C-31.17085571 107.46516787 -31.18372661 97.20940796 -31.18817699 86.95360965 C-31.19077711 81.52667909 -31.19685923 76.09980426 -31.21146011 70.67289162 C-31.22511187 65.55693473 -31.22920738 60.44105615 -31.22621536 55.32508278 C-31.22676214 53.45513482 -31.23069408 51.58518404 -31.23841095 49.71525192 C-31.27811279 39.59173179 -30.98242358 29.96629781 -29 20 C-28.01 19.67 -27.02 19.34 -26 19 C-25.87625 18.236875 -25.7525 17.47375 -25.625 16.6875 C-25 14 -25 14 -23 11 C-22.01 11 -21.02 11 -20 11 C-20 10.01 -20 9.02 -20 8 C-17.69 8 -15.38 8 -13 8 C-13 7.34 -13 6.68 -13 6 C-12.0409375 5.566875 -12.0409375 5.566875 -11.0625 5.125 C-8.84793921 4.17176549 -8.84793921 4.17176549 -8 2 C-5.36 2 -2.72 2 0 2 C0 1.34 0 0.68 0 0 Z " fill="#72ABFF" transform="translate(163,135)"/>
<path d="M0 0 C0.33 0 0.66 0 1 0 C1 52.47 1 104.94 1 159 C1.99 159 2.98 159 4 159 C4.66 157.02 5.32 155.04 6 153 C6.66 153 7.32 153 8 153 C8.33 152.01 8.66 151.02 9 150 C9.66 150 10.32 150 11 150 C11 149.34 11 148.68 11 148 C12.25 146.375 12.25 146.375 14 145 C15.32 145 16.64 145 18 145 C18 145.99 18 146.98 18 148 C16.30748124 149.19471912 14.6103344 150.38382217 12.8828125 151.52734375 C10.85592104 153.11269247 9.62219808 154.68622589 8.1875 156.8125 C7.1046875 158.3903125 7.1046875 158.3903125 6 160 C5.34 160 4.68 160 4 160 C3.67 160.99 3.34 161.98 3 163 C1.35 162.67 -0.3 162.34 -2 162 C-2.0466678 141.17314296 -2.08196318 120.3462945 -2.10362434 99.51939583 C-2.11394817 89.8496641 -2.12802957 80.17996481 -2.15087891 70.51025391 C-2.17077899 62.08465233 -2.18370838 53.65907424 -2.18817699 45.23344982 C-2.19079012 40.76987291 -2.19695494 36.3063632 -2.21146011 31.84280777 C-2.22499067 27.64532881 -2.22923187 23.44794502 -2.22621536 19.25044632 C-2.22676756 17.70645125 -2.2307719 16.16245314 -2.23841095 14.61847687 C-2.2483016 12.51710857 -2.24599073 10.41610378 -2.24050903 8.31472778 C-2.24235262 7.13667635 -2.24419621 5.95862492 -2.24609566 4.74487495 C-2 2 -2 2 0 0 Z " fill="#4B95FF" transform="translate(157,167)"/>
<path d="M0 0 C0.33 0 0.66 0 1 0 C1 64.02 1 128.04 1 194 C1.66 194 2.32 194 3 194 C3.45375 194.78375 3.9075 195.5675 4.375 196.375 C6.14894797 199.24060826 6.82722453 200.03054083 10 201 C14.99424753 201.4540225 18.06311101 201.19207216 22 198 C23.3726682 196.02678947 24.70427617 194.02456848 26 192 C30.36170213 187.21276596 30.36170213 187.21276596 34 186 C34.33 185.01 34.66 184.02 35 183 C36.48828125 181.5703125 36.48828125 181.5703125 38.3125 180.125 C41.31055119 177.66758099 43.58660876 175.03908527 46 172 C46.66 172 47.32 172 48 172 C48.33 171.01 48.66 170.02 49 169 C50.85546875 167.38671875 50.85546875 167.38671875 53.1875 165.6875 C56.1019213 163.55753963 58.12914484 161.82952476 60.33207703 158.92158508 C64.20002964 155.06520962 68.15371047 155.27021727 73.40420532 155.2011261 C74.65889618 155.21491806 75.91358704 155.22871002 77.20629883 155.24291992 C78.55218478 155.23638074 79.89806007 155.22719635 81.24391174 155.21557617 C84.88898468 155.1914411 88.53312445 155.20386473 92.17819428 155.22263885 C96.00174588 155.23577627 99.82509667 155.21419779 103.64860535 155.19612122 C110.89451234 155.16693932 118.14009118 155.16731152 125.38603562 155.17904502 C136.00091606 155.19490239 146.61569362 155.16608849 157.23053265 155.13767719 C158.80177493 155.1335404 160.37301726 155.12942133 161.94425964 155.12532043 C162.71197762 155.12326751 163.47969559 155.12121458 164.27067775 155.11909944 C168.81427193 155.10793443 173.35777529 155.10508579 177.90138018 155.10988748 C180.73705313 155.11244138 183.57271865 155.11133743 186.40839195 155.10974884 C188.33533473 155.11009482 190.2622745 155.11556609 192.18920898 155.12123108 C198.54737269 155.11512943 204.6973178 154.8514176 211 154 C211 154.66 211 155.32 211 156 C208.3309745 157.33451275 206.30947364 157.12164268 203.3196106 157.11784363 C201.50670029 157.11952042 201.50670029 157.11952042 199.65716553 157.12123108 C198.31066883 157.11756606 196.96417225 157.11385667 195.61767578 157.11010742 C194.20516967 157.10986537 192.7926634 157.11014225 191.38015747 157.11090088 C188.33429551 157.11200844 185.2884486 157.11057094 182.24258804 157.10753441 C177.4273895 157.10390852 172.61226986 157.11302693 167.79708862 157.12532043 C166.98501422 157.12734236 166.17293982 157.12936429 165.3362571 157.13144749 C163.67550778 157.13561623 162.01475854 157.13981899 160.35400939 157.14405501 C149.14107062 157.17222372 137.9283024 157.19231798 126.71533203 157.17504883 C119.15533538 157.16350072 111.59569206 157.17305074 104.03575885 157.20710641 C100.03362856 157.22428415 96.03213592 157.23051748 92.03000259 157.210989 C88.26548833 157.19278671 84.50207337 157.20233113 80.73765182 157.23324585 C79.35576466 157.2396223 77.97378646 157.23573262 76.59196472 157.22084999 C69.55917343 156.78323065 69.55917343 156.78323065 63.38000107 159.35100746 C62.16965141 161.15221516 62.16965141 161.15221516 61 164 C60.01 164.33 59.02 164.66 58 165 C57.67 165.99 57.34 166.98 57 168 C56.34 168 55.68 168 55 168 C54.67 168.99 54.34 169.98 54 171 C52.5459375 171.4021875 52.5459375 171.4021875 51.0625 171.8125 C49.5465625 172.4003125 49.5465625 172.4003125 48 173 C47.29618843 174.98723268 46.6288189 176.98777953 46 179 C45.26265625 179.27585937 44.5253125 179.55171875 43.765625 179.8359375 C39.60343904 181.58781803 37.36225596 184.79907251 34.48632812 188.1875 C33.35869034 189.4890178 32.18265772 190.74826669 31 192 C30.34 192 29.68 192 29 192 C29 193.32 29 194.64 29 196 C28.4225 196.061875 27.845 196.12375 27.25 196.1875 C24.12419715 197.31626214 23.01847182 199.41383298 21 202 C17.72595117 204.29183418 14.9353447 204.39353447 11 204 C7.43991242 202.53408158 4.40367513 201.07136266 2 198 C2 197.34 2 196.68 2 196 C1.34 196 0.68 196 0 196 C0 131.32 0 66.64 0 0 Z " fill="#A9CCFF" transform="translate(132,168)"/>
<path d="M0 0 C0.66 0.33 1.32 0.66 2 1 C0.46395304 4.14191424 -1.05731159 7.08596738 -3 10 C-3.66 10 -4.32 10 -5 10 C-5 77.98 -5 145.96 -5 216 C-4.01 216 -3.02 216 -2 216 C-2 216.66 -2 217.32 -2 218 C1.63 218 5.26 218 9 218 C9 217.34 9 216.68 9 216 C9.99 216 10.98 216 12 216 C12.33 215.01 12.66 214.02 13 213 C13.66 213.33 14.32 213.66 15 214 C10.69863014 219.83757339 10.69863014 219.83757339 7 221 C2.01754396 221.45295055 -1.05923481 221.1745053 -5 218 C-8.17817965 213.83484432 -8.42318209 210.17303124 -8.36749268 205.10775757 C-8.37076152 204.31903751 -8.37403036 203.53031745 -8.37739825 202.71769679 C-8.38467451 200.07771477 -8.37052587 197.43828789 -8.35644531 194.79833984 C-8.35723629 192.90414333 -8.35933386 191.00994697 -8.36264038 189.11575317 C-8.36777666 183.97076932 -8.35423153 178.82598534 -8.33711338 173.68103361 C-8.32206976 168.29164336 -8.32325111 162.90225563 -8.32244873 157.5128479 C-8.31875494 148.45563349 -8.30378686 139.39849481 -8.28125 130.34130859 C-8.25243239 118.73678313 -8.24203115 107.13231882 -8.2375679 95.52776146 C-8.23357684 85.53379592 -8.22107271 75.53984352 -8.20722103 65.54588747 C-8.20313443 62.34332974 -8.20020238 59.14077246 -8.19742584 55.93821335 C-8.19250471 50.89032332 -8.18225443 45.84246961 -8.16798782 40.79459763 C-8.16349355 38.94800139 -8.16063303 37.10140029 -8.15958023 35.25479889 C-8.14154717 9.40498113 -8.14154717 9.40498113 -4.5625 5 C-3.716875 4.34 -2.87125 3.68 -2 3 C-1.34 2.01 -0.68 1.02 0 0 Z " fill="#2F83FF" transform="translate(142,149)"/>
<path d="M0 0 C0.66 0 1.32 0 2 0 C2 0.99 2 1.98 2 3 C-1.49399126 5.32932751 -2.88679238 5.25762889 -7.01737976 5.2784729 C-8.90412918 5.29521812 -8.90412918 5.29521812 -10.82899475 5.31230164 C-12.22543305 5.31466667 -13.62187168 5.31684231 -15.01831055 5.31884766 C-16.48672031 5.32814437 -17.95512478 5.33831266 -19.42352295 5.34928894 C-23.41287624 5.37663205 -27.40219414 5.39175107 -31.39161658 5.40471697 C-35.55968784 5.42032869 -39.72768661 5.44712512 -43.89570618 5.4727478 C-51.78979816 5.51957035 -59.68390373 5.5562976 -67.57806379 5.58942068 C-76.56470601 5.62761754 -85.5512755 5.67703406 -94.53785646 5.72740483 C-113.02518444 5.83077636 -131.51255678 5.92001976 -150 6 C-150.12238037 6.62036133 -150.24476074 7.24072266 -150.37084961 7.87988281 C-151.27277506 10.91920008 -153.03973214 11.90233903 -155.5625 13.75 C-156.80193359 14.67039062 -156.80193359 14.67039062 -158.06640625 15.609375 C-158.70449219 16.06828125 -159.34257812 16.5271875 -160 17 C-160 16.01 -160 15.02 -160 14 C-159.21625 13.38125 -158.4325 12.7625 -157.625 12.125 C-154.81916294 9.85360809 -154.03665668 8.39269458 -153 5 C-151.35 5 -149.7 5 -148 5 C-148 4.34 -148 3.68 -148 3 C-144.79140341 1.9304678 -142.50745791 1.8768302 -139.13447571 1.87974548 C-137.91029938 1.87837082 -136.68612305 1.87699615 -135.42485046 1.87557983 C-134.06619238 1.87911896 -132.70753455 1.88275377 -131.34887695 1.88647461 C-129.91988121 1.88675665 -128.49088531 1.88659842 -127.06188965 1.8860321 C-123.17994704 1.88574477 -119.29803523 1.89163116 -115.41609979 1.89860606 C-111.36018037 1.90485025 -107.30426027 1.90544424 -103.24833679 1.90663147 C-95.56670657 1.90974163 -87.88509056 1.9179508 -80.20346659 1.92798096 C-71.45870442 1.93915185 -62.71394156 1.94465501 -53.96917403 1.94967639 C-35.97944129 1.96013366 -17.98972179 1.97772703 0 2 C0 1.34 0 0.68 0 0 Z " fill="#A2C8FF" transform="translate(336,295)"/>
<path d="M0 0 C2.26864626 1.7563713 3.8106243 3.10444764 4.41796875 5.9765625 C4.48628906 6.68554688 4.55460937 7.39453125 4.625 8.125 C4.58660109 12.01040592 4.58660109 12.01040592 7 14 C7.24888897 16.25794315 7.24888897 16.25794315 7.24723816 19.13111877 C7.25143265 20.21784882 7.25562714 21.30457886 7.25994873 22.42424011 C7.25151947 24.22046562 7.25151947 24.22046562 7.24291992 26.05297852 C7.24481827 27.30987488 7.24671661 28.56677124 7.24867249 29.86175537 C7.25352803 33.31412147 7.24585676 36.76635871 7.23571944 40.21870923 C7.22695202 43.82573128 7.22869612 47.43274913 7.2290802 51.03977966 C7.22814306 57.09677291 7.21945185 63.15371611 7.20581055 69.21069336 C7.19007741 76.22257959 7.18481266 83.23441102 7.1855461 90.24631363 C7.18615555 96.9813905 7.18105819 103.71644943 7.17275429 110.45152092 C7.16921549 113.32272417 7.16739019 116.19392109 7.16686058 119.06512642 C7.16567346 123.06891618 7.15597729 127.07264044 7.14526367 131.07641602 C7.14571686 132.27592392 7.14617004 133.47543182 7.14663696 134.71128845 C7.14237198 135.79519867 7.13810699 136.87910889 7.13371277 137.99586487 C7.13203692 138.9436358 7.13036108 139.89140673 7.12863445 140.86789799 C7 143 7 143 6 144 C5.76924918 145.34747084 5.58846937 146.70377565 5.4375 148.0625 C5.2209375 150.0115625 5.2209375 150.0115625 5 152 C4.01 152 3.02 152 2 152 C1.896875 152.5775 1.79375 153.155 1.6875 153.75 C0.89103535 156.35661158 -0.19065277 157.9735311 -2 160 C-2.66 160 -3.32 160 -4 160 C-4 160.66 -4 161.32 -4 162 C-5.32 162.33 -6.64 162.66 -8 163 C-8 162.34 -8 161.68 -8 161 C-7.34 161 -6.68 161 -6 161 C-5.34 159.35 -4.68 157.7 -4 156 C-3.34 156 -2.68 156 -2 156 C-1.71125 155.05125 -1.4225 154.1025 -1.125 153.125 C0 150 0 150 2 148 C3.47188248 141.3420171 3.13309392 134.50563624 3.11352539 127.72094727 C3.11324298 126.38003034 3.11340231 125.03911325 3.1139679 123.69819641 C3.11425375 120.07474586 3.10839134 116.45132869 3.10139394 112.82788587 C3.09512505 109.0349121 3.09455381 105.2419375 3.09336853 101.44895935 C3.09026562 94.27391015 3.08206628 87.09887626 3.07201904 79.92383379 C3.06082557 71.7521241 3.05533931 63.58041366 3.05032361 55.4086982 C3.03988277 38.60578985 3.02230352 21.80289688 3 5 C2.01 4.67 1.02 4.34 0 4 C0 2.68 0 1.36 0 0 Z " fill="#589CFF" transform="translate(360,153)"/>
<path d="M0 0 C1.62692254 0.00056491 3.25384558 0.000246 4.88076782 -0.00088501 C9.27476807 -0.00145642 13.66865806 0.01026352 18.0626328 0.02426291 C22.66304156 0.03680563 27.26345312 0.03794355 31.86387634 0.04031372 C40.56530403 0.0465181 49.26668118 0.06291478 57.96808666 0.0830127 C67.87861966 0.10540418 77.78915513 0.11637329 87.69970715 0.12640357 C108.07709529 0.14728196 128.45443801 0.18243762 148.83178711 0.22705078 C148.83178711 0.88705078 148.83178711 1.54705078 148.83178711 2.22705078 C149.82178711 2.55705078 150.81178711 2.88705078 151.83178711 3.22705078 C150.95933979 3.22612899 150.08689247 3.2252072 149.18800735 3.22425747 C127.97310493 3.20218653 106.75820448 3.18563154 85.543293 3.17523861 C75.28398476 3.17007926 65.02468418 3.16304341 54.76538086 3.15161133 C45.82483501 3.14165349 36.88429471 3.13519472 27.94374347 3.13296229 C23.2084934 3.13165706 18.47325921 3.128583 13.73801422 3.12132072 C9.28282463 3.11454319 4.82765748 3.11243737 0.37246323 3.1139431 C-1.26421607 3.11366755 -2.90089611 3.11167269 -4.53757095 3.10784531 C-6.76952082 3.10288104 -9.00138563 3.10406264 -11.2333374 3.10679626 C-13.10826433 3.10541358 -13.10826433 3.10541358 -15.02106857 3.10400295 C-19.72934785 3.28808842 -21.41688009 3.52694522 -24.91821289 6.78955078 C-25.66071289 7.59392578 -26.40321289 8.39830078 -27.16821289 9.22705078 C-26.50821289 6.91705078 -25.84821289 4.60705078 -25.16821289 2.22705078 C-16.81147022 -0.13379928 -8.60825688 -0.04199896 0 0 Z " fill="#3889FF" transform="translate(185.168212890625,156.77294921875)"/>
<path d="M0 0 C0.33 0.66 0.66 1.32 1 2 C0.29875 2.268125 -0.4025 2.53625 -1.125 2.8125 C-4.04854819 3.96063855 -4.04854819 3.96063855 -6.875 5.5625 C-14.21148207 8.93728175 -22.41055849 8.1155022 -30.31982422 8.0625 C-31.66584067 8.05734005 -33.01185942 8.05275239 -34.35787964 8.0486908 C-37.24595112 8.03966199 -40.13400211 8.02836883 -43.02206039 8.01583862 C-47.5953826 7.99780955 -52.16862166 7.99592329 -56.74197388 7.99829102 C-57.51567853 7.99866017 -58.28938318 7.99902933 -59.08653343 7.99940968 C-62.27472882 8.00117324 -65.46292386 8.00338311 -68.65111899 8.00555611 C-77.68283946 8.01080954 -86.71401964 8.00105823 -95.74560547 7.94873047 C-102.93440779 7.90719178 -110.12246667 7.89755017 -117.31134808 7.92484093 C-121.10991989 7.93805138 -124.90694903 7.93535998 -128.70534897 7.89379883 C-132.27995133 7.85501342 -135.85207028 7.85868035 -139.42668533 7.89392281 C-141.35133816 7.90204803 -143.27602111 7.86579115 -145.20031738 7.8278656 C-151.95105419 7.94009252 -155.4666374 8.72300989 -160.34866333 13.56860352 C-161.59960636 15.01719701 -162.8297622 16.48546209 -164 18 C-164 15 -164 15 -161.625 12.5625 C-160.75875 11.716875 -159.8925 10.87125 -159 10 C-158.29282921 8.68769984 -157.6166439 7.35719288 -157 6 C-155.9500213 5.99365209 -155.9500213 5.99365209 -154.87883091 5.98717594 C-137.87092067 5.88401025 -120.86305408 5.77539393 -103.85521793 5.66066074 C-95.63046269 5.60530973 -87.4057031 5.55182471 -79.1809082 5.50268555 C-72.01476832 5.45986666 -64.84866062 5.41359456 -57.6825704 5.36312145 C-53.88584902 5.33650194 -50.08913409 5.3116485 -46.29237556 5.29092598 C-42.7227797 5.27138885 -39.15324521 5.24725406 -35.58370399 5.21950912 C-33.64087613 5.20562929 -31.69801491 5.19669938 -29.75515747 5.18788147 C-28.60945786 5.17809265 -27.46375824 5.16830383 -26.28334045 5.15821838 C-25.28135148 5.15176583 -24.27936251 5.14531328 -23.24701023 5.1386652 C-21.03006172 5.25079865 -21.03006172 5.25079865 -20 4 C-16.4099482 3.71406667 -12.81985155 3.55089829 -9.22265625 3.37890625 C-5.91423026 3.32736325 -5.91423026 3.32736325 -4 1 C-1.875 0.375 -1.875 0.375 0 0 Z " fill="#4A94FF" transform="translate(351,316)"/>
<path d="M0 0 C2.1643925 3.24658875 2.25073532 4.12841445 2.25396729 7.87605286 C2.26242676 9.38378014 2.26242676 9.38378014 2.27105713 10.92196655 C2.26700867 12.02384308 2.26296021 13.1257196 2.25878906 14.26098633 C2.2622937 15.42221512 2.26579834 16.58344391 2.26940918 17.77986145 C2.27823397 21.63064498 2.27237344 25.48124574 2.265625 29.33203125 C2.26697171 32.00380177 2.26890917 34.67556669 2.27142334 37.34733582 C2.27506353 42.95366402 2.27026411 48.55993956 2.26074219 54.16625977 C2.24987342 60.64016638 2.25337146 67.11394687 2.264395 73.58785039 C2.27348541 79.14975301 2.27474411 84.71161776 2.26951766 90.27352542 C2.26640554 93.59364304 2.26675685 96.91368872 2.27259064 100.2338047 C2.27767136 103.93956635 2.26992275 107.64508641 2.25878906 111.35083008 C2.26283752 112.44663391 2.26688599 113.54243774 2.27105713 114.67144775 C2.24230088 119.83979253 2.09128416 124.17064377 0 129 C-0.66 129 -1.32 129 -2 129 C-2.33 129.99 -2.66 130.98 -3 132 C-3.99 131.67 -4.98 131.34 -6 131 C-5.34 131 -4.68 131 -4 131 C-3.855625 130.38125 -3.71125 129.7625 -3.5625 129.125 C-3 127 -3 127 -2 125 C-1.34 125 -0.68 125 0 125 C0 83.75 0 42.5 0 0 Z " fill="#559BFF" transform="translate(342,167)"/>
<path d="M0 0 C1.65 0 3.3 0 5 0 C2.35260942 4.21621463 -0.41220317 7.50661887 -4 11 C-4.99 12.485 -4.99 12.485 -6 14 C-6.66 14 -7.32 14 -8 14 C-8.33 81.65 -8.66 149.3 -9 219 C-9.33 219 -9.66 219 -10 219 C-10.02336994 193.33944455 -10.04099931 167.67889071 -10.05181217 142.01832676 C-10.05696642 130.10344143 -10.06399254 118.18856272 -10.07543945 106.27368164 C-10.08541289 95.88756157 -10.09185977 85.5014463 -10.09408849 75.11532158 C-10.09539107 69.61699609 -10.09844834 64.11868432 -10.10573006 58.62036324 C-10.11253221 53.44205538 -10.11460842 48.26376684 -10.11310768 43.08545494 C-10.11338212 41.18802917 -10.1153623 39.29060274 -10.11920547 37.39318085 C-10.1242083 34.79514256 -10.12297412 32.19717644 -10.12025452 29.59913635 C-10.12316736 28.85494416 -10.1260802 28.11075197 -10.12908131 27.34400851 C-10.11450917 22.16497507 -9.63884915 17.14021528 -9 12 C-8.01 11.67 -7.02 11.34 -6 11 C-5.814375 9.8553125 -5.814375 9.8553125 -5.625 8.6875 C-5 6 -5 6 -3 3 C-2.01 3 -1.02 3 0 3 C0 2.01 0 1.02 0 0 Z " fill="#79B0FF" transform="translate(143,143)"/>
<path d="M0 0 C0.33 0.66 0.66 1.32 1 2 C1.99 2.33 2.98 2.66 4 3 C4 44.25 4 85.5 4 128 C3.34 128 2.68 128 2 128 C1.99576806 127.37069989 1.99153612 126.74139978 1.98717594 126.09302998 C1.88385229 110.77778885 1.77521196 95.46259606 1.66066074 80.14743519 C1.60539265 72.74112825 1.55192127 65.3348165 1.50268555 57.9284668 C1.45976506 51.47278051 1.41346737 45.01712877 1.36312145 38.56149596 C1.33658379 35.14359141 1.31173249 31.72569343 1.29092598 28.30774879 C1.26684481 24.49133153 1.23679498 20.67500504 1.20532227 16.85864258 C1.1995668 15.72647812 1.19381134 14.59431366 1.18788147 13.42784119 C1.17809265 12.38602692 1.16830383 11.34421265 1.15821838 10.27082825 C1.15176583 9.36839292 1.14531328 8.46595758 1.1386652 7.53617573 C0.99675283 4.94060956 0.571887 2.53273591 0 0 Z " fill="#B4D2FF" transform="translate(338,164)"/>
<path d="M0 0 C0.66 0.33 1.32 0.66 2 1 C0.46395304 4.14191424 -1.05731159 7.08596738 -3 10 C-3.66 10 -4.32 10 -5 10 C-6.20734652 19.94681154 -6.17301811 29.87200913 -6.20532227 39.8737793 C-6.21491652 41.76700547 -6.22492747 43.66022958 -6.23532104 45.55345154 C-6.26220871 50.66419405 -6.28330499 55.77494564 -6.30332303 60.88571906 C-6.32528288 66.23753472 -6.35262237 71.5893229 -6.37937927 76.94111633 C-6.42917159 87.06261838 -6.47416002 97.18413578 -6.51740164 107.3056677 C-6.56688949 118.83413758 -6.62176458 130.36257988 -6.67708123 141.89102304 C-6.79069447 165.59398959 -6.89757801 189.29698263 -7 213 C-7.33 213 -7.66 213 -8 213 C-8.02338234 187.89552129 -8.04100538 162.79104423 -8.05181217 137.68655682 C-8.05696379 126.02955956 -8.06398488 114.37256908 -8.07543945 102.71557617 C-8.08542094 92.55283965 -8.09186168 82.39010803 -8.09408849 72.22736675 C-8.09538971 66.84858487 -8.09843828 61.46981703 -8.10573006 56.09103966 C-8.11254495 51.02270941 -8.11460586 45.95439892 -8.11310768 40.88606453 C-8.11338156 39.03140531 -8.1153541 37.17674539 -8.11920547 35.32209015 C-8.17029045 9.44035747 -8.17029045 9.44035747 -4.5625 5 C-3.716875 4.34 -2.87125 3.68 -2 3 C-1.34 2.01 -0.68 1.02 0 0 Z " fill="#4C96FF" transform="translate(142,149)"/>
<path d="M0 0 C0.33 0 0.66 0 1 0 C1 52.47 1 104.94 1 159 C1.99 159 2.98 159 4 159 C4.66 157.02 5.32 155.04 6 153 C6.66 153 7.32 153 8 153 C8.33 152.01 8.66 151.02 9 150 C9.66 150 10.32 150 11 150 C11 149.34 11 148.68 11 148 C12.25 146.375 12.25 146.375 14 145 C15.32 145 16.64 145 18 145 C18 145.99 18 146.98 18 148 C16.30337345 149.19761874 14.60153884 150.38894631 12.8671875 151.53125 C10.36568818 153.49895658 8.97331154 155.79095989 7.43359375 158.546875 C6 160 6 160 0 161 C0 107.87 0 54.74 0 0 Z " fill="#8BB9FF" transform="translate(157,167)"/>
<path d="M0 0 C0 0.66 0 1.32 0 2 C-2.6690255 3.33451275 -4.69052636 3.12164268 -7.6803894 3.11784363 C-9.49329971 3.11952042 -9.49329971 3.11952042 -11.34283447 3.12123108 C-12.68933117 3.11756606 -14.03582775 3.11385667 -15.38232422 3.11010742 C-16.79483033 3.10986537 -18.2073366 3.11014225 -19.61984253 3.11090088 C-22.66570449 3.11200844 -25.7115514 3.11057094 -28.75741196 3.10753441 C-33.5726105 3.10390852 -38.38773014 3.11302693 -43.20291138 3.12532043 C-44.01498578 3.12734236 -44.82706018 3.12936429 -45.6637429 3.13144749 C-47.32449222 3.13561623 -48.98524146 3.13981899 -50.64599061 3.14405501 C-61.85892938 3.17222372 -73.0716976 3.19231798 -84.28466797 3.17504883 C-91.84466462 3.16350072 -99.40430794 3.17305074 -106.96424115 3.20710641 C-110.96637144 3.22428415 -114.96786408 3.23051748 -118.96999741 3.210989 C-122.73451167 3.19278671 -126.49792663 3.20233113 -130.26234818 3.23324585 C-131.64423534 3.2396223 -133.02621354 3.23573262 -134.40803528 3.22084999 C-141.44082657 2.78323065 -141.44082657 2.78323065 -147.61999893 5.35100746 C-148.83034859 7.15221516 -148.83034859 7.15221516 -150 10 C-150.99 10.33 -151.98 10.66 -153 11 C-153.33 11.99 -153.66 12.98 -154 14 C-154.66 14 -155.32 14 -156 14 C-156.33 14.99 -156.66 15.98 -157 17 C-160.0625 18.1875 -160.0625 18.1875 -163 19 C-162.63614992 16.268142 -162.20216571 15.18641806 -160.14453125 13.2890625 C-159.37496094 12.73992187 -158.60539063 12.19078125 -157.8125 11.625 C-154.8793894 9.51635831 -152.8761263 7.83646043 -150.66990662 4.92378235 C-146.79709574 1.0603162 -142.83131494 1.27014008 -137.57357788 1.2011261 C-135.68682846 1.22181404 -135.68682846 1.22181404 -133.76196289 1.24291992 C-132.41283194 1.2363809 -131.06371162 1.22719662 -129.71461487 1.21557617 C-126.06141267 1.19144371 -122.40914166 1.20386214 -118.75594258 1.22263885 C-114.92611662 1.23577218 -111.09649145 1.21420142 -107.26670837 1.19612122 C-100.01133567 1.16694273 -92.75629075 1.16731151 -85.50088066 1.17904502 C-74.8629353 1.19491443 -64.22509177 1.16611671 -53.58718777 1.13767719 C-52.01445966 1.13354076 -50.4417315 1.1294217 -48.8690033 1.12532043 C-47.71671357 1.12224104 -47.71671357 1.12224104 -46.54114527 1.11909944 C-41.98695951 1.10791605 -37.43286443 1.10509288 -32.87866795 1.10988748 C-30.04090716 1.11243555 -27.20315382 1.11133993 -24.36539268 1.10974884 C-22.43090826 1.11009603 -20.49642687 1.11557649 -18.56195068 1.12123108 C-12.32866148 1.11523512 -6.1497946 0 0 0 Z " fill="#C1D9FF" transform="translate(343,322)"/>
<path d="M0 0 C21.87941674 -0.04675705 43.75882522 -0.08200701 65.63828182 -0.10362434 C75.79768992 -0.11392921 85.95706693 -0.12797447 96.11645508 -0.15087891 C104.97318164 -0.17083693 113.8298857 -0.18372218 122.68663412 -0.18817699 C127.37455728 -0.19078027 132.06241604 -0.19688272 136.75031853 -0.21146011 C141.1669652 -0.22508214 145.58352123 -0.22921332 150.00018692 -0.22621536 C151.61703166 -0.22676346 153.23387959 -0.2307133 154.8507061 -0.23841095 C176.49691223 -0.33637209 176.49691223 -0.33637209 183.0625 6.125 C183.81660156 6.84945312 184.57070313 7.57390625 185.34765625 8.3203125 C185.89292969 8.87460938 186.43820312 9.42890625 187 10 C186.67 10.66 186.34 11.32 186 12 C184.6589523 11.24266726 183.32730219 10.46867264 182 9.6875 C181.2575 9.25824219 180.515 8.82898438 179.75 8.38671875 C179.1725 7.92910156 178.595 7.47148437 178 7 C178 6.01 178 5.02 178 4 C177.01 4 176.02 4 175 4 C175 3.34 175 2.68 175 2 C117.25 1.67 59.5 1.34 0 1 C0 0.67 0 0.34 0 0 Z " fill="#3889FF" transform="translate(169,137)"/>
<path d="M0 0 C1.19051971 -0.00137466 2.38103943 -0.00274933 3.6076355 -0.00416565 C4.9153038 -0.00057037 6.22297211 0.0030249 7.57026672 0.00672913 C8.95985411 0.00701117 10.34944164 0.00685293 11.73902893 0.00628662 C15.51353731 0.00599932 19.28801401 0.01188525 23.06251502 0.01886058 C27.00632553 0.02510524 30.95013673 0.0256988 34.89395142 0.02688599 C42.36308603 0.02999601 49.83220603 0.03820499 57.3013342 0.04823548 C65.80426295 0.05940679 74.3071924 0.06490964 82.81012666 0.06993091 C100.30220329 0.08038786 117.79426569 0.09798097 135.28633118 0.12025452 C135.28633118 0.45025452 135.28633118 0.78025452 135.28633118 1.12025452 C134.20681277 1.12521974 134.20681277 1.12521974 133.10548592 1.13028526 C115.61317091 1.21142219 98.12094784 1.30348378 80.62875557 1.4077816 C72.16974327 1.45795389 63.71074089 1.50439617 55.25166321 1.54212952 C47.88076289 1.57501822 40.5099385 1.61483194 33.13912189 1.66304457 C29.23449128 1.68834077 25.32991124 1.71011269 21.42522049 1.72359848 C17.75297377 1.73639072 14.08090023 1.75841394 10.40874863 1.78763771 C8.41245091 1.80108681 6.4160943 1.80464047 4.41975403 1.80795288 C2.64865768 1.8246981 2.64865768 1.8246981 0.84178162 1.84178162 C-0.70406522 1.85007775 -0.70406522 1.85007775 -2.28114128 1.85854149 C-4.89403792 1.88235087 -4.89403792 1.88235087 -6.71366882 4.12025452 C-8.03366882 4.12025452 -9.35366882 4.12025452 -10.71366882 4.12025452 C-10.82001648 4.99423889 -10.82001648 4.99423889 -10.92851257 5.88587952 C-12.00175332 8.94007706 -13.68813295 9.97479163 -16.27616882 11.87025452 C-17.51560242 12.79064514 -17.51560242 12.79064514 -18.78007507 13.72962952 C-19.41816101 14.18853577 -20.05624695 14.64744202 -20.71366882 15.12025452 C-20.71366882 14.13025452 -20.71366882 13.14025452 -20.71366882 12.12025452 C-19.92991882 11.50150452 -19.14616882 10.88275452 -18.33866882 10.24525452 C-15.53283176 7.97386261 -14.7503255 6.5129491 -13.71366882 3.12025452 C-12.06366882 3.12025452 -10.41366882 3.12025452 -8.71366882 3.12025452 C-8.71366882 2.46025452 -8.71366882 1.80025452 -8.71366882 1.12025452 C-5.54661011 0.06456828 -3.32592628 -0.00295638 0 0 Z " fill="#C1DAFF" transform="translate(196.7136688232422,296.87974548339844)"/>
<path d="M0 0 C22.24379602 -0.07001813 44.48757392 -0.12295284 66.73145771 -0.15543652 C77.0592091 -0.17091878 87.38689211 -0.19203421 97.71459961 -0.22631836 C106.71409992 -0.25617916 115.71355071 -0.27556511 124.71309918 -0.28226548 C129.4802308 -0.28618338 134.24722073 -0.29541909 139.01430702 -0.31719017 C143.49826768 -0.33750295 147.98202783 -0.3438444 152.46603012 -0.33932304 C154.11442719 -0.34015059 155.76283075 -0.34614722 157.41118813 -0.35761642 C159.656846 -0.37247944 161.90174069 -0.36897683 164.14741516 -0.36076355 C165.40566258 -0.36352893 166.66391001 -0.36629431 167.96028614 -0.36914349 C171 0 171 0 172.92828655 1.52254772 C173.28195199 2.01010697 173.63561743 2.49766623 174 3 C172.35 3 170.7 3 169 3 C169 2.34 169 1.68 169 1 C113.23 1 57.46 1 0 1 C0 0.67 0 0.34 0 0 Z " fill="#D6E7FF" transform="translate(164,161)"/>
<path d="M0 0 C0.33 0 0.66 0 1 0 C1.02332875 16.80223821 1.04097906 33.60447139 1.05181217 50.40672207 C1.05697518 58.20775836 1.06401797 66.00878461 1.07543945 73.80981445 C1.08538615 80.60676313 1.09185339 87.40370454 1.09408849 94.20066029 C1.09539563 97.80178131 1.09848164 101.40288152 1.10573006 105.0039959 C1.11374364 109.01756602 1.11399115 113.03109964 1.11352539 117.04467773 C1.11712067 118.24732773 1.12071594 119.44997772 1.12442017 120.68907166 C1.1230455 121.77587219 1.12167084 122.86267273 1.12025452 123.98240662 C1.12117631 124.93277518 1.1220981 125.88314375 1.12304783 126.86231136 C1 129 1 129 0 130 C-0.23075082 131.34747084 -0.41153063 132.70377565 -0.5625 134.0625 C-0.7790625 136.0115625 -0.7790625 136.0115625 -1 138 C-1.99 138 -2.98 138 -4 138 C-4.103125 138.5775 -4.20625 139.155 -4.3125 139.75 C-5.10896465 142.35661158 -6.19065277 143.9735311 -8 146 C-8.66 146 -9.32 146 -10 146 C-10 146.66 -10 147.32 -10 148 C-11.32 148.33 -12.64 148.66 -14 149 C-14 148.34 -14 147.68 -14 147 C-13.34 147 -12.68 147 -12 147 C-11.62875 145.824375 -11.62875 145.824375 -11.25 144.625 C-9.80505715 141.59062001 -8.94434181 141.32970275 -6 140 C-5.67 139.01 -5.34 138.02 -5 137 C-4.01 137 -3.02 137 -2 137 C-2.01160156 136.39671875 -2.02320313 135.7934375 -2.03515625 135.171875 C-2.04417969 134.37265625 -2.05320312 133.5734375 -2.0625 132.75 C-2.07410156 131.96109375 -2.08570313 131.1721875 -2.09765625 130.359375 C-2 128 -2 128 -1.50378513 126.17682266 C-0.92236808 123.66455753 -0.86005482 121.39059436 -0.84178162 118.8114624 C-0.8319928 117.76260864 -0.82220398 116.71375488 -0.81211853 115.63311768 C-0.80636307 114.4880072 -0.8006076 113.34289673 -0.79467773 112.16308594 C-0.78477814 110.95305908 -0.77487854 109.74303223 -0.76467896 108.49633789 C-0.73851401 105.18263614 -0.71664258 101.86895819 -0.69667697 98.55521679 C-0.67478759 95.0905163 -0.64741336 91.62585926 -0.62062073 88.16119385 C-0.57073372 81.6023137 -0.52578011 75.04340939 -0.48259836 68.48448205 C-0.43319184 61.01654626 -0.37828639 53.54865408 -0.32291877 46.08076048 C-0.20916002 30.72054729 -0.10230772 15.36029398 0 0 Z " fill="#9DC5FF" transform="translate(366,167)"/>
<path d="M0 0 C0.33 0 0.66 0 1 0 C1 51.81 1 103.62 1 157 C1.99 157.33 2.98 157.66 4 158 C3.505 158.99 3.505 158.99 3 160 C2.01 160 1.02 160 0 160 C0 107.2 0 54.4 0 0 Z " fill="#C2DAFF" transform="translate(158,166)"/>
<path d="M0 0 C0.99 0 1.98 0 3 0 C3 2.97 3 5.94 3 9 C3.99 9.33 4.98 9.66 6 10 C6 53.56 6 97.12 6 142 C5.67 142 5.34 142 5 142 C4.99668985 141.33701212 4.99337971 140.67402424 4.98996925 139.99094582 C4.90882773 123.87558146 4.81676464 107.76032055 4.71247292 91.6450901 C4.66230339 83.85195513 4.61586109 76.05883091 4.578125 68.265625 C4.54523341 61.47483501 4.5054181 54.68412739 4.45720994 47.89342821 C4.43191659 44.29620033 4.41014385 40.69902729 4.39665604 37.10173416 C4.38148724 33.09065111 4.35086414 29.07983159 4.31884766 25.06884766 C4.31668747 23.86979294 4.31452728 22.67073822 4.31230164 21.43534851 C4.30113815 20.34717331 4.28997467 19.25899811 4.2784729 18.1378479 C4.27294214 17.18840113 4.26741138 16.23895435 4.26171303 15.26073647 C4.21399981 12.7999325 4.21399981 12.7999325 2 11 C1.71365426 8.99557982 1.43076704 6.98898706 1.24609375 4.97265625 C1.03952945 2.7913298 1.03952945 2.7913298 0 0 Z " fill="#CEE2FF" transform="translate(362,154)"/>
<path d="M0 0 C0.66 0 1.32 0 2 0 C1.42415568 2.38564077 0.77772405 4.66682784 0 7 C-0.73863281 7.27585937 -1.47726563 7.55171875 -2.23828125 7.8359375 C-6.39733874 9.58897729 -8.63924062 12.80083579 -11.51367188 16.1875 C-12.64130966 17.4890178 -13.81734228 18.74826669 -15 20 C-15.66 20 -16.32 20 -17 20 C-17 21.32 -17 22.64 -17 24 C-17.8971875 24.12375 -17.8971875 24.12375 -18.8125 24.25 C-21.5966296 25.20455872 -22.43311142 26.57132271 -24 29 C-24.99 28.67 -25.98 28.34 -27 28 C-26.34 27.360625 -25.68 26.72125 -25 26.0625 C-21.72415751 22.81481661 -18.76193482 19.30031749 -15.76953125 15.79296875 C-15.18558594 15.20128906 -14.60164062 14.60960937 -14 14 C-13.34 14 -12.68 14 -12 14 C-11.67 13.01 -11.34 12.02 -11 11 C-9.51171875 9.5703125 -9.51171875 9.5703125 -7.6875 8.125 C-4.68944881 5.66758099 -2.41339124 3.03908527 0 0 Z " fill="#8ABAFF" transform="translate(178,340)"/>
<path d="M0 0 C1.65 0 3.3 0 5 0 C2.35260942 4.21621463 -0.41220317 7.50661887 -4 11 C-4.99 12.485 -4.99 12.485 -6 14 C-6.66 14 -7.32 14 -8 14 C-8 15.98 -8 17.96 -8 20 C-8.33 20 -8.66 20 -9 20 C-9 17.36 -9 14.72 -9 12 C-8.01 11.67 -7.02 11.34 -6 11 C-5.87625 10.236875 -5.7525 9.47375 -5.625 8.6875 C-5 6 -5 6 -3 3 C-2.01 3 -1.02 3 0 3 C0 2.01 0 1.02 0 0 Z " fill="#C5DCFF" transform="translate(143,143)"/>
<path d="M0 0 C0 0.99 0 1.98 0 3 C-2.40625 5.04296875 -2.40625 5.04296875 -5.5 7.1875 C-6.5209375 7.90292969 -7.541875 8.61835938 -8.59375 9.35546875 C-9.3878125 9.89816406 -10.181875 10.44085938 -11 11 C-11.33 10.01 -11.66 9.02 -12 8 C-11.34 8 -10.68 8 -10 8 C-9.67 7.01 -9.34 6.02 -9 5 C-8.34 5 -7.68 5 -7 5 C-7 4.34 -7 3.68 -7 3 C-4.62529233 -0.08711997 -4.19087419 0 0 0 Z " fill="#9AC3FF" transform="translate(175,312)"/>
<path d="M0 0 C-0.33 0.99 -0.66 1.98 -1 3 C-1.66 3 -2.32 3 -3 3 C-3.33 3.99 -3.66 4.98 -4 6 C-7.0625 7.1875 -7.0625 7.1875 -10 8 C-9.875 6.25 -9.875 6.25 -9 4 C-3.88888889 0 -3.88888889 0 0 0 Z " fill="#A9CCFF" transform="translate(190,333)"/>
<path d="M0 0 C1.65 0 3.3 0 5 0 C2.17477391 4.67248931 -0.67760044 7.65996398 -5 11 C-3.55049545 7.2089881 -1.84827434 3.6125362 0 0 Z " fill="#96C1FF" transform="translate(143,143)"/>
<path d="M0 0 C0.96661363 3.12180401 0.98988909 5.52083795 0.5625 8.75 C0.46066406 9.54921875 0.35882813 10.3484375 0.25390625 11.171875 C0.12822266 12.07679688 0.12822266 12.07679688 0 13 C-0.99 13 -1.98 13 -3 13 C-3.12375 13.639375 -3.2475 14.27875 -3.375 14.9375 C-3.58125 15.618125 -3.7875 16.29875 -4 17 C-4.66 17.33 -5.32 17.66 -6 18 C-4.25 12.25 -4.25 12.25 -2 10 C-1.32059533 7.57284794 -1.32059533 7.57284794 -0.875 4.875 C-0.62363281 3.50988281 -0.62363281 3.50988281 -0.3671875 2.1171875 C-0.24601562 1.41851562 -0.12484375 0.71984375 0 0 Z " fill="#67A5FF" transform="translate(364,291)"/>
<path d="M0 0 C0 0.33 0 0.66 0 1 C-0.62648437 1.19335938 -1.25296875 1.38671875 -1.8984375 1.5859375 C-2.71570313 1.84632813 -3.53296875 2.10671875 -4.375 2.375 C-5.59316406 2.75785156 -5.59316406 2.75785156 -6.8359375 3.1484375 C-9.16459185 3.89854283 -9.16459185 3.89854283 -11 6 C-13.125 5.625 -13.125 5.625 -15 5 C-14.34 5 -13.68 5 -13 5 C-13 4.34 -13 3.68 -13 3 C-8.70614007 -0.4887612 -5.28129105 -0.26854022 0 0 Z " fill="#3F8EFF" transform="translate(163,138)"/>
<path d="M0 0 C0.66 0.33 1.32 0.66 2 1 C0.46395304 4.14191424 -1.05731159 7.08596738 -3 10 C-3.66 9.67 -4.32 9.34 -5 9 C-3.7508258 5.54074837 -2.32472205 2.85306797 0 0 Z " fill="#2981FF" transform="translate(142,149)"/>
<path d="M0 0 C1.32 0 2.64 0 4 0 C6.3125 2.3125 6.3125 2.3125 8 5 C7.67 5.99 7.34 6.98 7 8 C5.76302083 6.50260417 4.52604167 5.00520833 3.2890625 3.5078125 C2.24749008 2.28948839 1.13339903 1.13339903 0 0 Z " fill="#91BDFF" transform="translate(351,143)"/>
<path d="M0 0 C0.99 0 1.98 0 3 0 C3.33 3.96 3.66 7.92 4 12 C3.34 11.67 2.68 11.34 2 11 C1.71080072 9.00773831 1.42735449 7.01277818 1.24609375 5.0078125 C1.0424937 2.79670732 1.0424937 2.79670732 0 0 Z " fill="#B8D4FF" transform="translate(362,154)"/>
<path d="M0 0 C2.875 0.1875 2.875 0.1875 6 1 C7.375 3.5625 7.375 3.5625 8 6 C6 6 6 6 4 4.125 C3.34 3.42375 2.68 2.7225 2 2 C1.34 1.34 0.68 0.68 0 0 Z " fill="#76AEFF" transform="translate(333,160)"/>
</svg>
